# xmcd
#
# Track frame offsets:
#	187
#	14100
#	26957
#	38057
#	51722
#	62312
#	75725
#	91377
#	102315
#	112580
#	127117
#	137135
#	151357
#	163330
#
# Disc length: 2317 seconds
#
# Revision: 1
# Processed by: cddbd v1.5.2PL0 Copyright (c) Steve Scherf et al.
# Submitted via: EasyCDDAExtractor 7.0.3.1
#
DISCID=c0090b0e
DTITLE=Jambalaya Cajun Band - Joyeux Noel
DYEAR=1992
DGENRE=Cajun
TTITLE0=Christmas At My Grandparents
TTITLE1=He Is Born
TTITLE2=Jingle Bells
TTITLE3=Silent Night
TTITLE4=Rudolph the Red Nose Reindeer
TTITLE5=The Little Drummer Boy
TTITLE6=This Christmas Eve
TTITLE7=Jingle Bell Rock
TTITLE8=Hark, The Herald Angels Sing
TTITLE9=Away in a Manger
TTITLE10=Up On the Housetop
TTITLE11=Go Tell it to the World
TTITLE12=Frosty the Snowman
TTITLE13=Joy To the World
EXTD=
EXTT0=
EXTT1=
EXTT2=
EXTT3=
EXTT4=
EXTT5=
EXTT6=
EXTT7=
EXTT8=
EXTT9=
EXTT10=
EXTT11=
EXTT12=
EXTT13=
PLAYORDER=
